# xmcd
#
# Track frame offsets:
#	150
#	6022
#	29703
#	38571
#	47367
#	57102
#	65634
#	84927
#	98876
#	121326
#	140981
#	153506
#	178630
#	196738
#
# Disc length: 2831 seconds
#
# Revision: 0
# Processed by: cddbd v1.5.2PL0 Copyright (c) Steve Scherf et al.
# Submitted via: EasyCDDAExtractor 12.0.7.1
#
DISCID=b50b0d0e
DTITLE=Владимир Высоцкий - Каюсь! Каюсь! Каюсь!
DYEAR=2011
DGENRE=Chanson
TTITLE0=Парус
TTITLE1=Моя цыганская
TTITLE2=Гитара
TTITLE3=Я уехал в Магадан
TTITLE4=Я не люблю
TTITLE5=Нет меня - я покинул Россию!
TTITLE6=Певец у микрофона
TTITLE7=Горизонт
TTITLE8=Кони привередливые
TTITLE9=Памятник
TTITLE10=Я из дела ушел
TTITLE11=Баллада о детстве
TTITLE12=Песня о судьбе
TTITLE13=Грусть моя, тоска моя
EXTD=YEAR: 2011\n
EXTT0=
EXTT1=
EXTT2=
EXTT3=
EXTT4=
EXTT5=
EXTT6=
EXTT7=
EXTT8=
EXTT9=
EXTT10=
EXTT11=
EXTT12=
EXTT13=
PLAYORDER=
